<svg id="Layer_1" data-name="Layer 1" xmlns="http://www.w3.org/2000/svg" viewBox="0 0 306.68 219.33"><defs><style>.cls-1{fill:#dd571b;}.cls-2{fill:#231f20;}.cls-3{fill:#121212;}</style></defs><polygon class="cls-1" points="256.59 48.15 229.74 48.15 229.74 21.3 214.57 21.3 214.57 48.15 187.72 48.15 187.72 63.32 214.57 63.32 214.57 90.17 229.74 90.17 229.74 63.32 256.59 63.32 256.59 48.15"/><path class="cls-2" d="M14.91,55.44c-2-39.73,50.36-58.82,77.51-33.09l-9.6,11.44C64.64,15.46,30.12,26,30.78,55,29,82.3,61.47,94.46,80.86,79.44V63.32h-22V50.15H95.5V86.33C68.28,112.61,12.83,98.19,14.91,55.44"/><polygon class="cls-2" points="107.73 12.47 122.86 12.47 122.86 48.27 163.96 48.27 163.96 12.47 179.09 12.47 179.09 98.59 163.96 98.59 163.96 62.3 122.86 62.3 122.86 98.59 107.73 98.59 107.73 12.47"/><path class="cls-3" d="M19.4,116.2h16v76.51H83.28v14.57H19.4Z"/><path class="cls-3" d="M137.44,207.28v-8.46c-4.68,5.6-11.84,9.89-22.25,9.89-13,0-24.46-7.42-24.46-21.21v-.26c0-15.22,11.84-22.51,27.84-22.51a57.86,57.86,0,0,1,19,2.86v-1.3c0-9.5-6-14.7-16.91-14.7-7.68,0-13.41,1.69-19.65,4.29l-4.29-12.62a58.92,58.92,0,0,1,26.15-5.72c20.3,0,30.19,10.67,30.19,29v40.73Zm.39-28.76a45,45,0,0,0-15.74-2.73c-9.89,0-15.75,4-15.75,10.67v.26c0,6.51,5.86,10.15,13.28,10.15,10.4,0,18.21-5.86,18.21-14.44Z"/><path class="cls-3" d="M179.44,196.61v10.67H163.69v-95h15.75V150c5.07-7.16,12.23-12.88,23.29-12.88,16.26,0,32,12.88,32,35.65v.26c0,22.77-15.62,35.65-32,35.65C191.41,208.71,184.25,203,179.44,196.61Zm39.29-23.55v-.26c0-13.27-9-22-19.64-22s-20,8.85-20,22v.26c0,13.27,9.37,22,20,22S218.73,186.59,218.73,173.06Z"/><path class="cls-3" d="M237.18,198.3l7-10.67c7.41,5.6,15.48,8.46,22.51,8.46,6.76,0,10.67-2.86,10.67-7.42v-.26c0-5.33-7.29-7.16-15.36-9.63-10.15-2.86-21.47-7-21.47-20.17v-.25c0-13,10.8-21,24.47-21a47.68,47.68,0,0,1,25.24,7.8L284,156.4c-6.63-4-13.66-6.5-19.38-6.5-6.12,0-9.63,2.86-9.63,6.89v.26c0,4.95,7.41,7,15.48,9.63,10,3.12,21.34,7.68,21.34,20V187c0,14.44-11.19,21.6-25.5,21.6A48.25,48.25,0,0,1,237.18,198.3Z"/></svg>